PathFileType	4	(X/Y/Z)	Patient4_TMGait_0pt7_02_left_36.trc.trc
DataRate	CameraRate	NumFrames	NumMarkers	Units	OrigDataRate	OrigDataStartFrame	OrigNumFrames
88.050314465409	88.050314465409	4	33	mm	88.050314465409	1	       141
Frame#	Time	Sacral			L.Shoulder			Chest			R.Shoulder			Neck			R.ASIS			L.ASIS			R.Thigh.Superior			R.Thigh.Lateral			R.Thigh.Inferior			R.Patella			L.Thigh.Superior			L.Thigh.Lateral			L.Thigh.Inferior			L.Patella			L.Shank.Superior			L.Shank.Lateral			L.Shank.Inferior			R.Shank.Superior			R.Shank.Lateral			R.Shank.Inferior			R.Heel			R.Midfoot.Superior			R.Midfoot.Lateral			R.Toe			L.Heel			L.Midfoot.Lateral			L.Midfoot.Superior			L.Toe			L.Elbow			L.Wrist			R.Elbow			R.Wrist			
		X1	Y1	Z1	X2	Y2	Z2	X3	Y3	Z3	X4	Y4	Z4	X5	Y5	Z5	X6	Y6	Z6	X7	Y7	Z7	X8	Y8	Z8	X9	Y9	Z9	X10	Y10	Z10	X11	Y11	Z11	X12	Y12	Z12	X13	Y13	Z13	X14	Y14	Z14	X15	Y15	Z15	X16	Y16	Z16	X17	Y17	Z17	X18	Y18	Z18	X19	Y19	Z19	X20	Y20	Z20	X21	Y21	Z21	X22	Y22	Z22	X23	Y23	Z23	X24	Y24	Z24	X25	Y25	Z25	X26	Y26	Z26	X27	Y27	Z27	X28	Y28	Z28	X29	Y29	Z29	X30	Y30	Z30	X31	Y31	Z31	X32	Y32	Z32	X33	Y33	Z33	

1	41.190000000000	776.675243557625	1020.573100347348	522.597060698542	991.550936078621	1422.791833959282	315.871577652322	1099.811924099356	1343.772311627112	470.854611631239	1039.949086989393	1434.751666121879	646.692096774436	1012.967494464403	1485.946888575802	467.682484305561	1003.457760605388	939.374020422290	631.673084675886	976.980843100647	953.831343177761	358.621070739609	1041.990726864442	741.173454377896	606.920506120285	958.093946653902	635.829232488888	665.605953412575	1032.882666244759	583.272828299837	583.160506008632	1033.203627468911	496.891101264136	588.622475067546	1064.629704564663	791.010233854652	398.415948272298	1037.247577695912	664.881724190568	314.570930177783	1141.669431521786	608.106570984456	384.576594096516	1161.408271379321	517.262891088953	376.449098566025	1093.764482073606	448.865158343941	364.480123050144	953.582970759380	409.354553852362	309.487554538164	937.362904566202	279.352799697351	360.948090318636	1009.475634384024	408.508383826317	597.219729818955	942.771500462135	302.287239030857	659.385836380083	988.582205687948	209.165190949250	595.245525915780	860.197415084557	42.434777733098	565.668752612837	1031.171871392565	97.142219464191	599.325991287410	944.189120750458	36.501770553406	638.859907600189	1152.314116637605	46.168658170554	625.581486581076	745.754595052201	221.973184910335	390.351904089397	803.072126954439	172.303601803889	312.581895633572	907.304418790512	173.743022159688	337.264866938621	978.823589558971	56.626523577232	312.469831055573	913.745824493389	1071.264595741033	228.368772870097	1046.582124493496	843.072984336531	230.437685535628	959.542177742375	1102.683160134124	787.422754303568	1061.720090435497	860.863927515410	768.326782643763	
2	41.201357142857	775.141075324236	1020.935330718926	523.866468894700	989.488945025792	1422.103384657014	315.867724938079	1098.489277028696	1343.483164113753	470.528197388476	1039.586617116190	1434.733150584757	646.582980646020	1011.532555419907	1485.877591907994	467.609695543603	1002.135108143552	939.016440580365	631.737000799797	974.733132122819	954.060124583015	358.877058468477	1039.049721285352	740.503759727081	606.442116319350	955.260364078296	635.595168536384	665.909999408182	1029.078730836294	582.606611706183	582.969314906710	1028.698443857997	496.057277053630	588.530779674271	1064.050531331968	794.219615322886	399.038155383092	1039.234692589235	667.839804214454	314.673844851318	1144.377361816205	613.071088163011	384.933451446193	1166.307549980394	523.094670542630	376.403589111392	1101.381666596989	452.953380334499	364.233135723593	962.944298121523	407.578463652046	310.183658101561	953.189623313379	277.018155661614	361.068902926623	1004.238551852392	407.795872384681	597.059359086595	936.927155620465	302.154134716011	659.504664608433	981.551193537546	208.671448889483	595.077303688761	851.825956949045	42.426913776553	565.701974495327	1022.874308188840	97.135604635409	599.406824339929	935.811880696690	36.501756180056	638.914904087324	1143.971256453527	45.939317270189	625.615453617025	765.363851652088	210.429541152845	391.890838877234	824.114511379797	164.272775973616	313.190998059188	928.073959491396	170.872699301659	336.990364330741	1004.877807895987	58.053532246745	310.573489145874	911.189132672350	1070.027441253322	230.972624180011	1019.170011263433	834.020076305758	231.698838214970	968.411571647017	1101.326854453219	788.259883358292	1086.915278410832	870.237732102452	764.700612850561	
3	41.212714285714	773.626879136002	1021.271191284291	525.083408140040	987.488531100943	1421.420626835084	315.846224737588	1097.191117981872	1343.185017741409	470.198267726870	1039.212268064576	1434.702011135319	646.463139110036	1010.125958202561	1485.794469835555	467.523948688700	1000.836272418070	938.658137375906	631.783016258892	972.532659024319	954.261579400084	359.116700732934	1036.167571029484	739.831147105767	605.969062438242	952.466015339428	635.354731798690	666.188823889920	1025.346210873205	581.933222169694	582.775785890524	1024.269653120044	495.225791884550	588.433078779475	1063.442386297957	797.298026037665	399.616967140835	1041.104812714568	670.681889255342	314.765106914152	1146.954631772154	617.882673850554	385.253944835112	1171.020072879671	528.783278009586	376.352184475064	1108.814528370248	456.943105679514	364.000952356303	972.203965828030	405.717215380357	310.808484939116	968.859089782422	274.675852216679	361.170973193677	999.092443933068	407.094409579757	596.903114394319	931.164509090022	302.019160743771	659.610079588162	974.615539734270	208.181791138940	594.906823996327	843.563457504801	42.420498741845	565.732775148387	1014.678696489537	97.115997729672	599.470372936165	927.542385945804	36.499148465386	638.963545023835	1135.735416659401	45.704132508957	625.650776037515	784.847281260294	198.976978007870	393.294024274405	845.042539750875	156.293730657831	313.728436859220	948.669628729644	168.015827749899	336.725426181106	1030.710417450443	59.497028539779	308.793162880830	908.469311910776	1068.861831576883	233.443594327350	992.312028247389	825.602928636996	232.950031701248	977.233120830532	1100.001148956835	789.045379908740	1111.761588484862	879.791085697032	760.996372173879	
4	41.224071428571	772.150690145722	1021.560400806870	526.181928853050	985.595889732405	1420.756174952066	315.784566357092	1095.933031915484	1342.872338455703	469.850815607415	1038.815201315764	1434.646828154541	646.314117904245	1008.769700943873	1485.688823500009	467.407856434729	999.574811072996	938.306096601344	631.793199674423	970.426541488301	954.409726410138	359.307698659094	1033.364004425317	739.146703154202	605.505920126890	949.694503746285	635.103078154343	666.413423353283	1021.695375717734	581.237157391242	582.578702149284	1019.922341191741	494.393411403761	588.320562594235	1062.765723441542	800.112673116406	400.103350933233	1042.724901840812	673.276879346053	314.829777891750	1149.246764917623	622.363774771630	385.503605590147	1175.342045913891	534.178882364544	376.301882405863	1115.887309615047	460.733417132252	363.808972093417	981.343573363967	403.649964500665	311.278050975499	984.332080747711	272.305242775444	361.240593161765	994.047873928527	406.409317397278	596.749793632732	925.483007953548	301.882746438820	659.686969925519	967.782731343157	207.699928573532	594.730624612968	835.422430333384	42.419684156535	565.760068263808	1006.593252655109	97.074191445460	599.504629342027	919.392959064926	36.494171556566	639.002806705534	1127.617689425028	45.457871822694	625.689137592375	804.278332199929	187.623420404539	394.403596367754	865.964899976364	148.384195142446	314.122551480781	969.094638972942	165.196979475456	336.494487598025	1056.303506407662	61.059446770149	307.300301470865	905.348666199061	1067.888163727889	235.636022099693	966.421387850563	818.416083194262	234.206562681755	986.077558805573	1098.755152325890	789.691510733372	1136.048365468546	889.908901637349	757.062774434338	
